<?xml version="1.0" encoding="UTF-8"?>
<svg width="821px" height="497px" viewBox="0 0 821 497" version="1.1" xmlns="http://www.w3.org/2000/svg" xmlns:xlink="http://www.w3.org/1999/xlink">
    <!-- Generator: Sketch 55.1 (78136) - https://sketchapp.com -->
    <title>table screen</title>
    <desc>Created with Sketch.</desc>
    <defs>
        <rect id="path-1" x="0" y="0" width="619.622642" height="196" rx="4.64485981"></rect>
        <rect id="path-3" x="0" y="0" width="619.622642" height="32"></rect>
        <filter x="-0.1%" y="-1.6%" width="100.2%" height="106.2%" filterUnits="objectBoundingBox" id="filter-4">
            <feOffset dx="0" dy="1" in="SourceAlpha" result="shadowOffsetOuter1"></feOffset>
            <feColorMatrix values="0 0 0 0 0.933333333   0 0 0 0 0.933333333   0 0 0 0 0.933333333  0 0 0 1 0" type="matrix" in="shadowOffsetOuter1"></feColorMatrix>
        </filter>
        <rect id="path-5" x="0" y="0" width="619.622642" height="32"></rect>
        <filter x="-0.1%" y="-1.6%" width="100.2%" height="106.2%" filterUnits="objectBoundingBox" id="filter-6">
            <feOffset dx="0" dy="1" in="SourceAlpha" result="shadowOffsetOuter1"></feOffset>
            <feColorMatrix values="0 0 0 0 0.933333333   0 0 0 0 0.933333333   0 0 0 0 0.933333333  0 0 0 1 0" type="matrix" in="shadowOffsetOuter1"></feColorMatrix>
        </filter>
        <rect id="path-7" x="0" y="0" width="619.622642" height="32"></rect>
        <filter x="-0.1%" y="-1.6%" width="100.2%" height="106.2%" filterUnits="objectBoundingBox" id="filter-8">
            <feOffset dx="0" dy="1" in="SourceAlpha" result="shadowOffsetOuter1"></feOffset>
            <feColorMatrix values="0 0 0 0 0.933333333   0 0 0 0 0.933333333   0 0 0 0 0.933333333  0 0 0 1 0" type="matrix" in="shadowOffsetOuter1"></feColorMatrix>
        </filter>
        <rect id="path-9" x="0" y="0" width="619.622642" height="32"></rect>
        <filter x="-0.1%" y="-1.6%" width="100.2%" height="106.2%" filterUnits="objectBoundingBox" id="filter-10">
            <feOffset dx="0" dy="1" in="SourceAlpha" result="shadowOffsetOuter1"></feOffset>
            <feColorMatrix values="0 0 0 0 0.933333333   0 0 0 0 0.933333333   0 0 0 0 0.933333333  0 0 0 1 0" type="matrix" in="shadowOffsetOuter1"></feColorMatrix>
        </filter>
        <rect id="path-11" x="0" y="0" width="619.622642" height="163" rx="4.64485981"></rect>
        <rect id="path-13" x="0" y="0" width="619.622642" height="32"></rect>
        <filter x="-0.1%" y="-1.6%" width="100.2%" height="106.2%" filterUnits="objectBoundingBox" id="filter-14">
            <feOffset dx="0" dy="1" in="SourceAlpha" result="shadowOffsetOuter1"></feOffset>
            <feColorMatrix values="0 0 0 0 0.933333333   0 0 0 0 0.933333333   0 0 0 0 0.933333333  0 0 0 1 0" type="matrix" in="shadowOffsetOuter1"></feColorMatrix>
        </filter>
        <rect id="path-15" x="0" y="0" width="619.622642" height="32"></rect>
        <filter x="-0.1%" y="-1.6%" width="100.2%" height="106.2%" filterUnits="objectBoundingBox" id="filter-16">
            <feOffset dx="0" dy="1" in="SourceAlpha" result="shadowOffsetOuter1"></feOffset>
            <feColorMatrix values="0 0 0 0 0.933333333   0 0 0 0 0.933333333   0 0 0 0 0.933333333  0 0 0 1 0" type="matrix" in="shadowOffsetOuter1"></feColorMatrix>
        </filter>
        <rect id="path-17" x="0" y="0" width="619.622642" height="32"></rect>
        <filter x="-0.1%" y="-1.6%" width="100.2%" height="106.2%" filterUnits="objectBoundingBox" id="filter-18">
            <feOffset dx="0" dy="1" in="SourceAlpha" result="shadowOffsetOuter1"></feOffset>
            <feColorMatrix values="0 0 0 0 0.933333333   0 0 0 0 0.933333333   0 0 0 0 0.933333333  0 0 0 1 0" type="matrix" in="shadowOffsetOuter1"></feColorMatrix>
        </filter>
    </defs>
    <g id="New-homepage-/-pricing" stroke="none" stroke-width="1" fill="none" fill-rule="evenodd">
        <g id="Artboard" transform="translate(-994.000000, -130.000000)">
            <g id="table-screen" transform="translate(994.000000, 130.000000)">
                <rect id="Rectangle" fill="#FFFFFF" x="0" y="0" width="821" height="497" rx="9.28971963"></rect>
                <g id="folders">
                    <path d="M9.28971963,0 L170.396226,0 L170.396226,497 L9.28971963,497 C4.15914915,497 -2.92440001e-15,492.840851 0,487.71028 L0,9.28971963 C-6.28313672e-16,4.15914915 4.15914915,-2.61024317e-15 9.28971963,0 Z" id="Rectangle" fill="#FFFFFF"></path>
                    <g transform="translate(15.490566, 61.931464)" fill="#EDEDED">
                        <rect id="Rectangle" x="0" y="49.5451713" width="108.433962" height="16" rx="8"></rect>
                        <rect id="Rectangle-Copy-8" x="0" y="0" width="139.415094" height="24.7725857" rx="6"></rect>
                        <rect id="Rectangle-Copy-2" x="0" y="83.6074766" width="123.924528" height="16" rx="8"></rect>
                        <rect id="Rectangle-Copy-3" x="0" y="117.669782" width="108.433962" height="16" rx="8"></rect>
                        <rect id="Rectangle-Copy-4" x="0" y="151.732087" width="92.9433962" height="16" rx="8"></rect>
                        <rect id="Rectangle-Copy-5" x="0" y="185.794393" width="108.433962" height="16" rx="8"></rect>
                        <rect id="Rectangle-Copy-6" x="0" y="219.856698" width="77.4528302" height="16" rx="8"></rect>
                        <rect id="Rectangle-Copy-23" x="0" y="253.919003" width="108.433962" height="16" rx="8"></rect>
                    </g>
                </g>
                <path d="M170.396226,0 L811.71028,0 C816.840851,6.28535972e-14 821,4.15914915 821,9.28971963 L821,487.71028 C821,492.840851 816.840851,497 811.71028,497 L170.396226,497 L170.396226,0 Z" id="Rectangle" fill="#F3F3F3"></path>
                <g id="item-1" transform="translate(185.886792, 83.607477)">
                    <mask id="mask-2" fill="white">
                        <use xlink:href="#path-1"></use>
                    </mask>
                    <use id="Rectangle" fill="#FFFFFF" xlink:href="#path-1"></use>
                    <path d="M4.64485981,0 L614.977782,0 C617.543067,-4.71235254e-16 619.622642,2.07957457 619.622642,4.64485981 L619.622642,32 L0,32 L0,4.64485981 C-3.14156836e-16,2.07957457 2.07957457,-1.30512159e-15 4.64485981,0 Z" id="Rectangle" fill="#E4E4E4" mask="url(#mask-2)"></path>
                    <rect id="Rectangle-Copy-13" fill="#47BEFF" mask="url(#mask-2)" x="18.1132075" y="8.39252336" width="61.9622642" height="12.3862928" rx="6.19314642"></rect>
                    <g id="Group" mask="url(#mask-2)">
                        <g transform="translate(0.113208, 32.392523)">
                            <g id="Rectangle" stroke="none" fill="none">
                                <use fill="black" fill-opacity="1" filter="url(#filter-4)" xlink:href="#path-3"></use>
                                <use fill="#FFFFFF" fill-rule="evenodd" xlink:href="#path-3"></use>
                            </g>
                            <rect id="Rectangle" stroke="none" fill="#EDEDED" fill-rule="evenodd" x="19" y="8" width="54.2169811" height="15" rx="7.5"></rect>
                            <rect id="Rectangle-Copy-13" stroke="none" fill="#47BEFF" fill-rule="evenodd" x="116.590566" y="8" width="30.9811321" height="15" rx="7.5"></rect>
                            <g id="Group-2" stroke="none" stroke-width="1" fill="none" fill-rule="evenodd" transform="translate(177.000000, 8.000000)">
                                <path d="M8.24696676,0.32622589 L10.3374918,4.76068578 L15.0114239,5.47211617 C15.4698044,5.54215343 15.6528749,6.13194024 15.3212356,6.47033048 L11.938655,9.92205808 L12.7371243,14.7966463 C12.8152813,15.275111 12.3357772,15.6393044 11.9259809,15.4137108 L7.74563506,13.1128049 L3.56458517,15.4144482 C3.1547888,15.6400416 2.67528475,15.275111 2.75344179,14.7966463 L3.55191108,9.92205808 L0.169330474,6.47033048 C-0.162308861,6.13194024 0.0207616768,5.54141611 0.479142162,5.47211617 L5.15307439,4.76068578 L7.24359928,0.32622589 C7.44920166,-0.108741963 8.04206857,-0.108741963 8.24696676,0.32622589 Z" id="favorites" fill="#FFC506"></path>
                                <path d="M29.9337592,0.32622589 L32.0242842,4.76068578 L36.6982163,5.47211617 C37.1565968,5.54215343 37.3396674,6.13194024 37.008028,6.47033048 L33.6254474,9.92205808 L34.4239167,14.7966463 C34.5020737,15.275111 34.0225697,15.6393044 33.6127733,15.4137108 L29.4324275,13.1128049 L25.2513776,15.4144482 C24.8415813,15.6400416 24.3620772,15.275111 24.4402342,14.7966463 L25.2387035,9.92205808 L21.8561229,6.47033048 C21.5244836,6.13194024 21.7075541,5.54141611 22.1659346,5.47211617 L26.8398668,4.76068578 L28.9303917,0.32622589 C29.1359941,-0.108741963 29.728861,-0.108741963 29.9337592,0.32622589 Z" id="favorites-copy" fill="#FFC506"></path>
                                <path d="M51.6205517,0.32622589 L53.7110767,4.76068578 L58.3850088,5.47211617 C58.8433893,5.54215343 59.0264598,6.13194024 58.6948205,6.47033048 L55.3122399,9.92205808 L56.1107092,14.7966463 C56.1888662,15.275111 55.7093621,15.6393044 55.2995658,15.4137108 L51.11922,13.1128049 L46.9381701,15.4144482 C46.5283737,15.6400416 46.0488697,15.275111 46.1270267,14.7966463 L46.925496,9.92205808 L43.5429154,6.47033048 C43.211276,6.13194024 43.3943466,5.54141611 43.8527271,5.47211617 L48.5266593,4.76068578 L50.6171842,0.32622589 C50.8227866,-0.108741963 51.4156535,-0.108741963 51.6205517,0.32622589 Z" id="favorites-copy-2" fill="#FFC506"></path>
                                <path d="M73.3073441,0.32622589 L75.3978691,4.76068578 L80.0718012,5.47211617 C80.5301817,5.54215343 80.7132523,6.13194024 80.3816129,6.47033048 L76.9990323,9.92205808 L77.7975016,14.7966463 C77.8756586,15.275111 77.3961546,15.6393044 76.9863582,15.4137108 L72.8060124,13.1128049 L68.6249625,15.4144482 C68.2151662,15.6400416 67.7356621,15.275111 67.8138191,14.7966463 L68.6122884,9.92205808 L65.2297078,6.47033048 C64.8980685,6.13194024 65.081139,5.54141611 65.5395195,5.47211617 L70.2134517,4.76068578 L72.3039766,0.32622589 C72.509579,-0.108741963 73.1024459,-0.108741963 73.3073441,0.32622589 Z" id="favorites-copy-3" fill="#FFC506"></path>
                                <path d="M94.9941366,0.32622589 L97.0846616,4.76068578 L101.758594,5.47211617 C102.216974,5.54215343 102.400045,6.13194024 102.068405,6.47033048 L98.6858248,9.92205808 L99.4842941,14.7966463 C99.5624511,15.275111 99.082947,15.6393044 98.6731507,15.4137108 L94.4928049,13.1128049 L90.311755,15.4144482 C89.9019586,15.6400416 89.4224546,15.275111 89.5006116,14.7966463 L90.2990809,9.92205808 L86.9165003,6.47033048 C86.584861,6.13194024 86.7679315,5.54141611 87.226312,5.47211617 L91.9002442,4.76068578 L93.9907691,0.32622589 C94.1963715,-0.108741963 94.7892384,-0.108741963 94.9941366,0.32622589 Z" id="favorites-copy-4" fill="#FFC506"></path>
                            </g>
                            <polyline id="Shape" stroke="#47BEFF" stroke-width="3.68639668" fill="none" stroke-linecap="round" stroke-linejoin="round" points="305 16.0019272 309.041017 19.741433 317.392453 12"></polyline>
                            <rect id="Rectangle-Copy-11" stroke="none" fill="#EDEDED" fill-rule="evenodd" x="350.498113" y="8" width="55.7660377" height="15" rx="7.5"></rect>
                            <rect id="Rectangle-Copy-18" stroke="none" fill="#EDEDED" fill-rule="evenodd" x="438.79434" y="8" width="117.728302" height="15" rx="7.5"></rect>
                            <ellipse id="Oval" stroke="none" fill="#FFC506" fill-rule="evenodd" cx="596.29434" cy="15.2897196" rx="9.29433962" ry="9.28971963"></ellipse>
                        </g>
                    </g>
                    <g id="Group-Copy" mask="url(#mask-2)">
                        <g transform="translate(0.113208, 65.392523)">
                            <g id="Rectangle" stroke="none" fill="none">
                                <use fill="black" fill-opacity="1" filter="url(#filter-6)" xlink:href="#path-5"></use>
                                <use fill="#FFFFFF" fill-rule="evenodd" xlink:href="#path-5"></use>
                            </g>
                            <rect id="Rectangle" stroke="none" fill="#EDEDED" fill-rule="evenodd" x="19" y="8" width="46.4716981" height="15" rx="7.5"></rect>
                            <rect id="Rectangle-Copy-13" stroke="none" fill="#1CDFBB" fill-rule="evenodd" x="116.590566" y="8" width="30.9811321" height="15" rx="7.5"></rect>
                            <g id="Group-2" stroke="none" stroke-width="1" fill="none" fill-rule="evenodd" transform="translate(177.000000, 8.000000)">
                                <path d="M8.24696676,0.32622589 L10.3374918,4.76068578 L15.0114239,5.47211617 C15.4698044,5.54215343 15.6528749,6.13194024 15.3212356,6.47033048 L11.938655,9.92205808 L12.7371243,14.7966463 C12.8152813,15.275111 12.3357772,15.6393044 11.9259809,15.4137108 L7.74563506,13.1128049 L3.56458517,15.4144482 C3.1547888,15.6400416 2.67528475,15.275111 2.75344179,14.7966463 L3.55191108,9.92205808 L0.169330474,6.47033048 C-0.162308861,6.13194024 0.0207616768,5.54141611 0.479142162,5.47211617 L5.15307439,4.76068578 L7.24359928,0.32622589 C7.44920166,-0.108741963 8.04206857,-0.108741963 8.24696676,0.32622589 Z" id="favorites" fill="#FFC506"></path>
                                <path d="M29.9337592,0.32622589 L32.0242842,4.76068578 L36.6982163,5.47211617 C37.1565968,5.54215343 37.3396674,6.13194024 37.008028,6.47033048 L33.6254474,9.92205808 L34.4239167,14.7966463 C34.5020737,15.275111 34.0225697,15.6393044 33.6127733,15.4137108 L29.4324275,13.1128049 L25.2513776,15.4144482 C24.8415813,15.6400416 24.3620772,15.275111 24.4402342,14.7966463 L25.2387035,9.92205808 L21.8561229,6.47033048 C21.5244836,6.13194024 21.7075541,5.54141611 22.1659346,5.47211617 L26.8398668,4.76068578 L28.9303917,0.32622589 C29.1359941,-0.108741963 29.728861,-0.108741963 29.9337592,0.32622589 Z" id="favorites-copy" fill="#FFC506"></path>
                                <path d="M51.6205517,0.32622589 L53.7110767,4.76068578 L58.3850088,5.47211617 C58.8433893,5.54215343 59.0264598,6.13194024 58.6948205,6.47033048 L55.3122399,9.92205808 L56.1107092,14.7966463 C56.1888662,15.275111 55.7093621,15.6393044 55.2995658,15.4137108 L51.11922,13.1128049 L46.9381701,15.4144482 C46.5283737,15.6400416 46.0488697,15.275111 46.1270267,14.7966463 L46.925496,9.92205808 L43.5429154,6.47033048 C43.211276,6.13194024 43.3943466,5.54141611 43.8527271,5.47211617 L48.5266593,4.76068578 L50.6171842,0.32622589 C50.8227866,-0.108741963 51.4156535,-0.108741963 51.6205517,0.32622589 Z" id="favorites-copy-2" fill="#FFC506"></path>
                                <path d="M73.3073441,0.32622589 L75.3978691,4.76068578 L80.0718012,5.47211617 C80.5301817,5.54215343 80.7132523,6.13194024 80.3816129,6.47033048 L76.9990323,9.92205808 L77.7975016,14.7966463 C77.8756586,15.275111 77.3961546,15.6393044 76.9863582,15.4137108 L72.8060124,13.1128049 L68.6249625,15.4144482 C68.2151662,15.6400416 67.7356621,15.275111 67.8138191,14.7966463 L68.6122884,9.92205808 L65.2297078,6.47033048 C64.8980685,6.13194024 65.081139,5.54141611 65.5395195,5.47211617 L70.2134517,4.76068578 L72.3039766,0.32622589 C72.509579,-0.108741963 73.1024459,-0.108741963 73.3073441,0.32622589 Z" id="favorites-copy-3" fill="#FFC506"></path>
                                <path d="M94.9941366,0.32622589 L97.0846616,4.76068578 L101.758594,5.47211617 C102.216974,5.54215343 102.400045,6.13194024 102.068405,6.47033048 L98.6858248,9.92205808 L99.4842941,14.7966463 C99.5624511,15.275111 99.082947,15.6393044 98.6731507,15.4137108 L94.4928049,13.1128049 L90.311755,15.4144482 C89.9019586,15.6400416 89.4224546,15.275111 89.5006116,14.7966463 L90.2990809,9.92205808 L86.9165003,6.47033048 C86.584861,6.13194024 86.7679315,5.54141611 87.226312,5.47211617 L91.9002442,4.76068578 L93.9907691,0.32622589 C94.1963715,-0.108741963 94.7892384,-0.108741963 94.9941366,0.32622589 Z" id="favorites-copy-4" fill="#EDEDED"></path>
                            </g>
                            <polyline id="Shape" stroke="#EDEDED" stroke-width="3.68639668" fill="none" stroke-linecap="round" stroke-linejoin="round" points="305 16.0019272 309.041017 19.741433 317.392453 12"></polyline>
                            <rect id="Rectangle-Copy-11" stroke="none" fill="#EDEDED" fill-rule="evenodd" x="350.498113" y="8" width="55.7660377" height="15" rx="7.5"></rect>
                            <rect id="Rectangle-Copy-18" stroke="none" fill="#EDEDED" fill-rule="evenodd" x="438.79434" y="8" width="86.7471698" height="15" rx="7.5"></rect>
                            <ellipse id="Oval" stroke="none" fill="#FF4C65" fill-rule="evenodd" cx="596.29434" cy="15.2897196" rx="9.29433962" ry="9.28971963"></ellipse>
                        </g>
                    </g>
                    <g id="Group-Copy-2" mask="url(#mask-2)">
                        <g transform="translate(0.113208, 98.392523)">
                            <g id="Rectangle" stroke="none" fill="none">
                                <use fill="black" fill-opacity="1" filter="url(#filter-8)" xlink:href="#path-7"></use>
                                <use fill="#FFFFFF" fill-rule="evenodd" xlink:href="#path-7"></use>
                            </g>
                            <rect id="Rectangle" stroke="none" fill="#EDEDED" fill-rule="evenodd" x="19" y="8" width="61.9622642" height="15" rx="7.5"></rect>
                            <rect id="Rectangle-Copy-13" stroke="none" fill="#1CDFBB" fill-rule="evenodd" x="116.590566" y="8" width="30.9811321" height="15" rx="7.5"></rect>
                            <g id="Group-2" stroke="none" stroke-width="1" fill="none" fill-rule="evenodd" transform="translate(177.000000, 8.000000)">
                                <path d="M8.24696676,0.32622589 L10.3374918,4.76068578 L15.0114239,5.47211617 C15.4698044,5.54215343 15.6528749,6.13194024 15.3212356,6.47033048 L11.938655,9.92205808 L12.7371243,14.7966463 C12.8152813,15.275111 12.3357772,15.6393044 11.9259809,15.4137108 L7.74563506,13.1128049 L3.56458517,15.4144482 C3.1547888,15.6400416 2.67528475,15.275111 2.75344179,14.7966463 L3.55191108,9.92205808 L0.169330474,6.47033048 C-0.162308861,6.13194024 0.0207616768,5.54141611 0.479142162,5.47211617 L5.15307439,4.76068578 L7.24359928,0.32622589 C7.44920166,-0.108741963 8.04206857,-0.108741963 8.24696676,0.32622589 Z" id="favorites" fill="#FFC506"></path>
                                <path d="M29.9337592,0.32622589 L32.0242842,4.76068578 L36.6982163,5.47211617 C37.1565968,5.54215343 37.3396674,6.13194024 37.008028,6.47033048 L33.6254474,9.92205808 L34.4239167,14.7966463 C34.5020737,15.275111 34.0225697,15.6393044 33.6127733,15.4137108 L29.4324275,13.1128049 L25.2513776,15.4144482 C24.8415813,15.6400416 24.3620772,15.275111 24.4402342,14.7966463 L25.2387035,9.92205808 L21.8561229,6.47033048 C21.5244836,6.13194024 21.7075541,5.54141611 22.1659346,5.47211617 L26.8398668,4.76068578 L28.9303917,0.32622589 C29.1359941,-0.108741963 29.728861,-0.108741963 29.9337592,0.32622589 Z" id="favorites-copy" fill="#FFC506"></path>
                                <path d="M51.6205517,0.32622589 L53.7110767,4.76068578 L58.3850088,5.47211617 C58.8433893,5.54215343 59.0264598,6.13194024 58.6948205,6.47033048 L55.3122399,9.92205808 L56.1107092,14.7966463 C56.1888662,15.275111 55.7093621,15.6393044 55.2995658,15.4137108 L51.11922,13.1128049 L46.9381701,15.4144482 C46.5283737,15.6400416 46.0488697,15.275111 46.1270267,14.7966463 L46.925496,9.92205808 L43.5429154,6.47033048 C43.211276,6.13194024 43.3943466,5.54141611 43.8527271,5.47211617 L48.5266593,4.76068578 L50.6171842,0.32622589 C50.8227866,-0.108741963 51.4156535,-0.108741963 51.6205517,0.32622589 Z" id="favorites-copy-2" fill="#FFC506"></path>
                                <path d="M73.3073441,0.32622589 L75.3978691,4.76068578 L80.0718012,5.47211617 C80.5301817,5.54215343 80.7132523,6.13194024 80.3816129,6.47033048 L76.9990323,9.92205808 L77.7975016,14.7966463 C77.8756586,15.275111 77.3961546,15.6393044 76.9863582,15.4137108 L72.8060124,13.1128049 L68.6249625,15.4144482 C68.2151662,15.6400416 67.7356621,15.275111 67.8138191,14.7966463 L68.6122884,9.92205808 L65.2297078,6.47033048 C64.8980685,6.13194024 65.081139,5.54141611 65.5395195,5.47211617 L70.2134517,4.76068578 L72.3039766,0.32622589 C72.509579,-0.108741963 73.1024459,-0.108741963 73.3073441,0.32622589 Z" id="favorites-copy-3" fill="#FFC506"></path>
                                <path d="M94.9941366,0.32622589 L97.0846616,4.76068578 L101.758594,5.47211617 C102.216974,5.54215343 102.400045,6.13194024 102.068405,6.47033048 L98.6858248,9.92205808 L99.4842941,14.7966463 C99.5624511,15.275111 99.082947,15.6393044 98.6731507,15.4137108 L94.4928049,13.1128049 L90.311755,15.4144482 C89.9019586,15.6400416 89.4224546,15.275111 89.5006116,14.7966463 L90.2990809,9.92205808 L86.9165003,6.47033048 C86.584861,6.13194024 86.7679315,5.54141611 87.226312,5.47211617 L91.9002442,4.76068578 L93.9907691,0.32622589 C94.1963715,-0.108741963 94.7892384,-0.108741963 94.9941366,0.32622589 Z" id="favorites-copy-4" fill="#EDEDED"></path>
                            </g>
                            <polyline id="Shape" stroke="#47BEFF" stroke-width="3.68639668" fill="none" stroke-linecap="round" stroke-linejoin="round" points="305 16.0019272 309.041017 19.741433 317.392453 12"></polyline>
                            <rect id="Rectangle-Copy-11" stroke="none" fill="#EDEDED" fill-rule="evenodd" x="350.498113" y="8" width="55.7660377" height="15" rx="7.5"></rect>
                            <rect id="Rectangle-Copy-18" stroke="none" fill="#EDEDED" fill-rule="evenodd" x="438.79434" y="8" width="71.2566038" height="15" rx="7.5"></rect>
                            <ellipse id="Oval" stroke="none" fill="#47BEFF" fill-rule="evenodd" cx="596.29434" cy="15.2897196" rx="9.29433962" ry="9.28971963"></ellipse>
                        </g>
                    </g>
                    <g id="Group-Copy-3" mask="url(#mask-2)">
                        <g transform="translate(0.113208, 131.392523)">
                            <g id="Rectangle" stroke="none" fill="none">
                                <use fill="black" fill-opacity="1" filter="url(#filter-10)" xlink:href="#path-9"></use>
                                <use fill="#FFFFFF" fill-rule="evenodd" xlink:href="#path-9"></use>
                            </g>
                            <rect id="Rectangle" stroke="none" fill="#EDEDED" fill-rule="evenodd" x="19" y="8" width="46.4716981" height="15" rx="7.5"></rect>
                            <rect id="Rectangle-Copy-13" stroke="none" fill="#FF4C65" fill-rule="evenodd" x="116.590566" y="8" width="30.9811321" height="15" rx="7.5"></rect>
                            <g id="Group-2" stroke="none" stroke-width="1" fill="none" fill-rule="evenodd" transform="translate(177.000000, 8.000000)">
                                <path d="M8.24696676,0.32622589 L10.3374918,4.76068578 L15.0114239,5.47211617 C15.4698044,5.54215343 15.6528749,6.13194024 15.3212356,6.47033048 L11.938655,9.92205808 L12.7371243,14.7966463 C12.8152813,15.275111 12.3357772,15.6393044 11.9259809,15.4137108 L7.74563506,13.1128049 L3.56458517,15.4144482 C3.1547888,15.6400416 2.67528475,15.275111 2.75344179,14.7966463 L3.55191108,9.92205808 L0.169330474,6.47033048 C-0.162308861,6.13194024 0.0207616768,5.54141611 0.479142162,5.47211617 L5.15307439,4.76068578 L7.24359928,0.32622589 C7.44920166,-0.108741963 8.04206857,-0.108741963 8.24696676,0.32622589 Z" id="favorites" fill="#FFC506"></path>
                                <path d="M29.9337592,0.32622589 L32.0242842,4.76068578 L36.6982163,5.47211617 C37.1565968,5.54215343 37.3396674,6.13194024 37.008028,6.47033048 L33.6254474,9.92205808 L34.4239167,14.7966463 C34.5020737,15.275111 34.0225697,15.6393044 33.6127733,15.4137108 L29.4324275,13.1128049 L25.2513776,15.4144482 C24.8415813,15.6400416 24.3620772,15.275111 24.4402342,14.7966463 L25.2387035,9.92205808 L21.8561229,6.47033048 C21.5244836,6.13194024 21.7075541,5.54141611 22.1659346,5.47211617 L26.8398668,4.76068578 L28.9303917,0.32622589 C29.1359941,-0.108741963 29.728861,-0.108741963 29.9337592,0.32622589 Z" id="favorites-copy" fill="#FFC506"></path>
                                <path d="M51.6205517,0.32622589 L53.7110767,4.76068578 L58.3850088,5.47211617 C58.8433893,5.54215343 59.0264598,6.13194024 58.6948205,6.47033048 L55.3122399,9.92205808 L56.1107092,14.7966463 C56.1888662,15.275111 55.7093621,15.6393044 55.2995658,15.4137108 L51.11922,13.1128049 L46.9381701,15.4144482 C46.5283737,15.6400416 46.0488697,15.275111 46.1270267,14.7966463 L46.925496,9.92205808 L43.5429154,6.47033048 C43.211276,6.13194024 43.3943466,5.54141611 43.8527271,5.47211617 L48.5266593,4.76068578 L50.6171842,0.32622589 C50.8227866,-0.108741963 51.4156535,-0.108741963 51.6205517,0.32622589 Z" id="favorites-copy-2" fill="#FFC506"></path>
                                <path d="M73.3073441,0.32622589 L75.3978691,4.76068578 L80.0718012,5.47211617 C80.5301817,5.54215343 80.7132523,6.13194024 80.3816129,6.47033048 L76.9990323,9.92205808 L77.7975016,14.7966463 C77.8756586,15.275111 77.3961546,15.6393044 76.9863582,15.4137108 L72.8060124,13.1128049 L68.6249625,15.4144482 C68.2151662,15.6400416 67.7356621,15.275111 67.8138191,14.7966463 L68.6122884,9.92205808 L65.2297078,6.47033048 C64.8980685,6.13194024 65.081139,5.54141611 65.5395195,5.47211617 L70.2134517,4.76068578 L72.3039766,0.32622589 C72.509579,-0.108741963 73.1024459,-0.108741963 73.3073441,0.32622589 Z" id="favorites-copy-3" fill="#EDEDED"></path>
                                <path d="M94.9941366,0.32622589 L97.0846616,4.76068578 L101.758594,5.47211617 C102.216974,5.54215343 102.400045,6.13194024 102.068405,6.47033048 L98.6858248,9.92205808 L99.4842941,14.7966463 C99.5624511,15.275111 99.082947,15.6393044 98.6731507,15.4137108 L94.4928049,13.1128049 L90.311755,15.4144482 C89.9019586,15.6400416 89.4224546,15.275111 89.5006116,14.7966463 L90.2990809,9.92205808 L86.9165003,6.47033048 C86.584861,6.13194024 86.7679315,5.54141611 87.226312,5.47211617 L91.9002442,4.76068578 L93.9907691,0.32622589 C94.1963715,-0.108741963 94.7892384,-0.108741963 94.9941366,0.32622589 Z" id="favorites-copy-4" fill="#EDEDED"></path>
                            </g>
                            <polyline id="Shape" stroke="#47BEFF" stroke-width="3.68639668" fill="none" stroke-linecap="round" stroke-linejoin="round" points="305 16.0019272 309.041017 19.741433 317.392453 12"></polyline>
                            <rect id="Rectangle-Copy-11" stroke="none" fill="#EDEDED" fill-rule="evenodd" x="350.498113" y="8" width="55.7660377" height="15" rx="7.5"></rect>
                            <rect id="Rectangle-Copy-18" stroke="none" fill="#EDEDED" fill-rule="evenodd" x="438.79434" y="8" width="102.237736" height="15" rx="7.5"></rect>
                            <ellipse id="Oval" stroke="none" fill="#FF4C65" fill-rule="evenodd" cx="596.29434" cy="15.2897196" rx="9.29433962" ry="9.28971963"></ellipse>
                        </g>
                    </g>
                    <g id="Group-Copy-4" mask="url(#mask-2)">
                        <g transform="translate(0.113208, 164.392523)">
                            <rect id="Rectangle" stroke="none" fill="#FFFFFF" fill-rule="evenodd" x="0" y="0" width="619.622642" height="32"></rect>
                            <rect id="Rectangle" stroke="none" fill="#EDEDED" fill-rule="evenodd" x="19" y="8" width="55.7660377" height="15" rx="7.5"></rect>
                            <rect id="Rectangle-Copy-13" stroke="none" fill="#E391FF" fill-rule="evenodd" x="116.590566" y="8" width="30.9811321" height="15" rx="7.5"></rect>
                            <g id="Group-2" stroke="none" stroke-width="1" fill="none" fill-rule="evenodd" transform="translate(177.000000, 8.000000)">
                                <path d="M8.24696676,0.32622589 L10.3374918,4.76068578 L15.0114239,5.47211617 C15.4698044,5.54215343 15.6528749,6.13194024 15.3212356,6.47033048 L11.938655,9.92205808 L12.7371243,14.7966463 C12.8152813,15.275111 12.3357772,15.6393044 11.9259809,15.4137108 L7.74563506,13.1128049 L3.56458517,15.4144482 C3.1547888,15.6400416 2.67528475,15.275111 2.75344179,14.7966463 L3.55191108,9.92205808 L0.169330474,6.47033048 C-0.162308861,6.13194024 0.0207616768,5.54141611 0.479142162,5.47211617 L5.15307439,4.76068578 L7.24359928,0.32622589 C7.44920166,-0.108741963 8.04206857,-0.108741963 8.24696676,0.32622589 Z" id="favorites" fill="#FFC506"></path>
                                <path d="M29.9337592,0.32622589 L32.0242842,4.76068578 L36.6982163,5.47211617 C37.1565968,5.54215343 37.3396674,6.13194024 37.008028,6.47033048 L33.6254474,9.92205808 L34.4239167,14.7966463 C34.5020737,15.275111 34.0225697,15.6393044 33.6127733,15.4137108 L29.4324275,13.1128049 L25.2513776,15.4144482 C24.8415813,15.6400416 24.3620772,15.275111 24.4402342,14.7966463 L25.2387035,9.92205808 L21.8561229,6.47033048 C21.5244836,6.13194024 21.7075541,5.54141611 22.1659346,5.47211617 L26.8398668,4.76068578 L28.9303917,0.32622589 C29.1359941,-0.108741963 29.728861,-0.108741963 29.9337592,0.32622589 Z" id="favorites-copy" fill="#FFC506"></path>
                                <path d="M51.6205517,0.32622589 L53.7110767,4.76068578 L58.3850088,5.47211617 C58.8433893,5.54215343 59.0264598,6.13194024 58.6948205,6.47033048 L55.3122399,9.92205808 L56.1107092,14.7966463 C56.1888662,15.275111 55.7093621,15.6393044 55.2995658,15.4137108 L51.11922,13.1128049 L46.9381701,15.4144482 C46.5283737,15.6400416 46.0488697,15.275111 46.1270267,14.7966463 L46.925496,9.92205808 L43.5429154,6.47033048 C43.211276,6.13194024 43.3943466,5.54141611 43.8527271,5.47211617 L48.5266593,4.76068578 L50.6171842,0.32622589 C50.8227866,-0.108741963 51.4156535,-0.108741963 51.6205517,0.32622589 Z" id="favorites-copy-2" fill="#FFC506"></path>
                                <path d="M73.3073441,0.32622589 L75.3978691,4.76068578 L80.0718012,5.47211617 C80.5301817,5.54215343 80.7132523,6.13194024 80.3816129,6.47033048 L76.9990323,9.92205808 L77.7975016,14.7966463 C77.8756586,15.275111 77.3961546,15.6393044 76.9863582,15.4137108 L72.8060124,13.1128049 L68.6249625,15.4144482 C68.2151662,15.6400416 67.7356621,15.275111 67.8138191,14.7966463 L68.6122884,9.92205808 L65.2297078,6.47033048 C64.8980685,6.13194024 65.081139,5.54141611 65.5395195,5.47211617 L70.2134517,4.76068578 L72.3039766,0.32622589 C72.509579,-0.108741963 73.1024459,-0.108741963 73.3073441,0.32622589 Z" id="favorites-copy-3" fill="#FFC506"></path>
                                <path d="M94.9941366,0.32622589 L97.0846616,4.76068578 L101.758594,5.47211617 C102.216974,5.54215343 102.400045,6.13194024 102.068405,6.47033048 L98.6858248,9.92205808 L99.4842941,14.7966463 C99.5624511,15.275111 99.082947,15.6393044 98.6731507,15.4137108 L94.4928049,13.1128049 L90.311755,15.4144482 C89.9019586,15.6400416 89.4224546,15.275111 89.5006116,14.7966463 L90.2990809,9.92205808 L86.9165003,6.47033048 C86.584861,6.13194024 86.7679315,5.54141611 87.226312,5.47211617 L91.9002442,4.76068578 L93.9907691,0.32622589 C94.1963715,-0.108741963 94.7892384,-0.108741963 94.9941366,0.32622589 Z" id="favorites-copy-4" fill="#FFC506"></path>
                            </g>
                            <polyline id="Shape" stroke="#EDEDED" stroke-width="3.68639668" fill="none" stroke-linecap="round" stroke-linejoin="round" points="305 16.0019272 309.041017 19.741433 317.392453 12"></polyline>
                            <rect id="Rectangle-Copy-11" stroke="none" fill="#EDEDED" fill-rule="evenodd" x="350.498113" y="8" width="55.7660377" height="15" rx="7.5"></rect>
                            <rect id="Rectangle-Copy-18" stroke="none" fill="#EDEDED" fill-rule="evenodd" x="438.79434" y="8" width="71.2566038" height="15" rx="7.5"></rect>
                            <ellipse id="Oval" stroke="none" fill="#47BEFF" fill-rule="evenodd" cx="596.29434" cy="15.2897196" rx="9.29433962" ry="9.28971963"></ellipse>
                        </g>
                    </g>
                    <rect id="Rectangle" fill="#EEEEEE" mask="url(#mask-2)" x="96.0415094" y="0" width="1" height="196"></rect>
                    <rect id="Rectangle-Copy-14" fill="#EEEEEE" mask="url(#mask-2)" x="165.749057" y="0" width="1" height="196"></rect>
                    <rect id="Rectangle-Copy-15" fill="#EEEEEE" mask="url(#mask-2)" x="288.124528" y="0" width="1" height="196"></rect>
                    <rect id="Rectangle-Copy-16" fill="#EEEEEE" mask="url(#mask-2)" x="333.04717" y="0" width="1" height="196"></rect>
                    <rect id="Rectangle-Copy-17" fill="#EEEEEE" mask="url(#mask-2)" x="421.343396" y="0" width="1" height="196"></rect>
                    <rect id="Rectangle-Copy-21" fill="#EEEEEE" mask="url(#mask-2)" x="571.601887" y="0" width="1" height="196"></rect>
                </g>
                <g id="item-1-copy-7" transform="translate(185.886792, 295.000000)">
                    <mask id="mask-12" fill="white">
                        <use xlink:href="#path-11"></use>
                    </mask>
                    <use id="Rectangle" fill="#FFFFFF" xlink:href="#path-11"></use>
                    <path d="M4.64485981,0 L614.977782,0 C617.543067,-4.71235254e-16 619.622642,2.07957457 619.622642,4.64485981 L619.622642,32 L0,32 L0,4.64485981 C-3.14156836e-16,2.07957457 2.07957457,-1.30512159e-15 4.64485981,0 Z" id="Rectangle" fill="#E4E4E4" mask="url(#mask-12)"></path>
                    <rect id="Rectangle-Copy-13" fill="#E391FF" mask="url(#mask-12)" x="18.1132075" y="8.39252336" width="51.9622642" height="12.3862928" rx="6.19314642"></rect>
                    <g id="Group" mask="url(#mask-12)">
                        <g transform="translate(0.113208, 32.000000)">
                            <g id="Rectangle" stroke="none" fill="none">
                                <use fill="black" fill-opacity="1" filter="url(#filter-14)" xlink:href="#path-13"></use>
                                <use fill="#FFFFFF" fill-rule="evenodd" xlink:href="#path-13"></use>
                            </g>
                            <rect id="Rectangle" stroke="none" fill="#EDEDED" fill-rule="evenodd" x="19" y="8" width="54.2169811" height="15" rx="7.5"></rect>
                            <rect id="Rectangle-Copy-13" stroke="none" fill="#FFC506" fill-rule="evenodd" x="116.590566" y="8" width="30.9811321" height="15" rx="7.5"></rect>
                            <g id="Group-2" stroke="none" stroke-width="1" fill="none" fill-rule="evenodd" transform="translate(177.000000, 8.000000)">
                                <path d="M8.24696676,0.32622589 L10.3374918,4.76068578 L15.0114239,5.47211617 C15.4698044,5.54215343 15.6528749,6.13194024 15.3212356,6.47033048 L11.938655,9.92205808 L12.7371243,14.7966463 C12.8152813,15.275111 12.3357772,15.6393044 11.9259809,15.4137108 L7.74563506,13.1128049 L3.56458517,15.4144482 C3.1547888,15.6400416 2.67528475,15.275111 2.75344179,14.7966463 L3.55191108,9.92205808 L0.169330474,6.47033048 C-0.162308861,6.13194024 0.0207616768,5.54141611 0.479142162,5.47211617 L5.15307439,4.76068578 L7.24359928,0.32622589 C7.44920166,-0.108741963 8.04206857,-0.108741963 8.24696676,0.32622589 Z" id="favorites" fill="#FFC506"></path>
                                <path d="M29.9337592,0.32622589 L32.0242842,4.76068578 L36.6982163,5.47211617 C37.1565968,5.54215343 37.3396674,6.13194024 37.008028,6.47033048 L33.6254474,9.92205808 L34.4239167,14.7966463 C34.5020737,15.275111 34.0225697,15.6393044 33.6127733,15.4137108 L29.4324275,13.1128049 L25.2513776,15.4144482 C24.8415813,15.6400416 24.3620772,15.275111 24.4402342,14.7966463 L25.2387035,9.92205808 L21.8561229,6.47033048 C21.5244836,6.13194024 21.7075541,5.54141611 22.1659346,5.47211617 L26.8398668,4.76068578 L28.9303917,0.32622589 C29.1359941,-0.108741963 29.728861,-0.108741963 29.9337592,0.32622589 Z" id="favorites-copy" fill="#FFC506"></path>
                                <path d="M51.6205517,0.32622589 L53.7110767,4.76068578 L58.3850088,5.47211617 C58.8433893,5.54215343 59.0264598,6.13194024 58.6948205,6.47033048 L55.3122399,9.92205808 L56.1107092,14.7966463 C56.1888662,15.275111 55.7093621,15.6393044 55.2995658,15.4137108 L51.11922,13.1128049 L46.9381701,15.4144482 C46.5283737,15.6400416 46.0488697,15.275111 46.1270267,14.7966463 L46.925496,9.92205808 L43.5429154,6.47033048 C43.211276,6.13194024 43.3943466,5.54141611 43.8527271,5.47211617 L48.5266593,4.76068578 L50.6171842,0.32622589 C50.8227866,-0.108741963 51.4156535,-0.108741963 51.6205517,0.32622589 Z" id="favorites-copy-2" fill="#FFC506"></path>
                                <path d="M73.3073441,0.32622589 L75.3978691,4.76068578 L80.0718012,5.47211617 C80.5301817,5.54215343 80.7132523,6.13194024 80.3816129,6.47033048 L76.9990323,9.92205808 L77.7975016,14.7966463 C77.8756586,15.275111 77.3961546,15.6393044 76.9863582,15.4137108 L72.8060124,13.1128049 L68.6249625,15.4144482 C68.2151662,15.6400416 67.7356621,15.275111 67.8138191,14.7966463 L68.6122884,9.92205808 L65.2297078,6.47033048 C64.8980685,6.13194024 65.081139,5.54141611 65.5395195,5.47211617 L70.2134517,4.76068578 L72.3039766,0.32622589 C72.509579,-0.108741963 73.1024459,-0.108741963 73.3073441,0.32622589 Z" id="favorites-copy-3" fill="#EDEDED"></path>
                                <path d="M94.9941366,0.32622589 L97.0846616,4.76068578 L101.758594,5.47211617 C102.216974,5.54215343 102.400045,6.13194024 102.068405,6.47033048 L98.6858248,9.92205808 L99.4842941,14.7966463 C99.5624511,15.275111 99.082947,15.6393044 98.6731507,15.4137108 L94.4928049,13.1128049 L90.311755,15.4144482 C89.9019586,15.6400416 89.4224546,15.275111 89.5006116,14.7966463 L90.2990809,9.92205808 L86.9165003,6.47033048 C86.584861,6.13194024 86.7679315,5.54141611 87.226312,5.47211617 L91.9002442,4.76068578 L93.9907691,0.32622589 C94.1963715,-0.108741963 94.7892384,-0.108741963 94.9941366,0.32622589 Z" id="favorites-copy-4" fill="#EDEDED"></path>
                            </g>
                            <polyline id="Shape" stroke="#EDEDED" stroke-width="3.68639668" fill="none" stroke-linecap="round" stroke-linejoin="round" points="305 16.0019272 309.041017 19.741433 317.392453 12"></polyline>
                            <rect id="Rectangle-Copy-11" stroke="none" fill="#EDEDED" fill-rule="evenodd" x="350.498113" y="8" width="55.7660377" height="15" rx="7.5"></rect>
                            <rect id="Rectangle-Copy-18" stroke="none" fill="#EDEDED" fill-rule="evenodd" x="438.79434" y="8" width="107.728302" height="15" rx="7.5"></rect>
                            <ellipse id="Oval" stroke="none" fill="#1CDFBB" fill-rule="evenodd" cx="596.29434" cy="15.2897196" rx="9.29433962" ry="9.28971963"></ellipse>
                        </g>
                    </g>
                    <g id="Group-Copy" mask="url(#mask-12)">
                        <g transform="translate(0.113208, 65.000000)">
                            <g id="Rectangle" stroke="none" fill="none">
                                <use fill="black" fill-opacity="1" filter="url(#filter-16)" xlink:href="#path-15"></use>
                                <use fill="#FFFFFF" fill-rule="evenodd" xlink:href="#path-15"></use>
                            </g>
                            <rect id="Rectangle" stroke="none" fill="#EDEDED" fill-rule="evenodd" x="19" y="8" width="66.4716981" height="15" rx="7.5"></rect>
                            <rect id="Rectangle-Copy-13" stroke="none" fill="#E391FF" fill-rule="evenodd" x="116.590566" y="8" width="30.9811321" height="15" rx="7.5"></rect>
                            <g id="Group-2" stroke="none" stroke-width="1" fill="none" fill-rule="evenodd" transform="translate(177.000000, 8.000000)">
                                <path d="M8.24696676,0.32622589 L10.3374918,4.76068578 L15.0114239,5.47211617 C15.4698044,5.54215343 15.6528749,6.13194024 15.3212356,6.47033048 L11.938655,9.92205808 L12.7371243,14.7966463 C12.8152813,15.275111 12.3357772,15.6393044 11.9259809,15.4137108 L7.74563506,13.1128049 L3.56458517,15.4144482 C3.1547888,15.6400416 2.67528475,15.275111 2.75344179,14.7966463 L3.55191108,9.92205808 L0.169330474,6.47033048 C-0.162308861,6.13194024 0.0207616768,5.54141611 0.479142162,5.47211617 L5.15307439,4.76068578 L7.24359928,0.32622589 C7.44920166,-0.108741963 8.04206857,-0.108741963 8.24696676,0.32622589 Z" id="favorites" fill="#FFC506"></path>
                                <path d="M29.9337592,0.32622589 L32.0242842,4.76068578 L36.6982163,5.47211617 C37.1565968,5.54215343 37.3396674,6.13194024 37.008028,6.47033048 L33.6254474,9.92205808 L34.4239167,14.7966463 C34.5020737,15.275111 34.0225697,15.6393044 33.6127733,15.4137108 L29.4324275,13.1128049 L25.2513776,15.4144482 C24.8415813,15.6400416 24.3620772,15.275111 24.4402342,14.7966463 L25.2387035,9.92205808 L21.8561229,6.47033048 C21.5244836,6.13194024 21.7075541,5.54141611 22.1659346,5.47211617 L26.8398668,4.76068578 L28.9303917,0.32622589 C29.1359941,-0.108741963 29.728861,-0.108741963 29.9337592,0.32622589 Z" id="favorites-copy" fill="#FFC506"></path>
                                <path d="M51.6205517,0.32622589 L53.7110767,4.76068578 L58.3850088,5.47211617 C58.8433893,5.54215343 59.0264598,6.13194024 58.6948205,6.47033048 L55.3122399,9.92205808 L56.1107092,14.7966463 C56.1888662,15.275111 55.7093621,15.6393044 55.2995658,15.4137108 L51.11922,13.1128049 L46.9381701,15.4144482 C46.5283737,15.6400416 46.0488697,15.275111 46.1270267,14.7966463 L46.925496,9.92205808 L43.5429154,6.47033048 C43.211276,6.13194024 43.3943466,5.54141611 43.8527271,5.47211617 L48.5266593,4.76068578 L50.6171842,0.32622589 C50.8227866,-0.108741963 51.4156535,-0.108741963 51.6205517,0.32622589 Z" id="favorites-copy-2" fill="#FFC506"></path>
                                <path d="M73.3073441,0.32622589 L75.3978691,4.76068578 L80.0718012,5.47211617 C80.5301817,5.54215343 80.7132523,6.13194024 80.3816129,6.47033048 L76.9990323,9.92205808 L77.7975016,14.7966463 C77.8756586,15.275111 77.3961546,15.6393044 76.9863582,15.4137108 L72.8060124,13.1128049 L68.6249625,15.4144482 C68.2151662,15.6400416 67.7356621,15.275111 67.8138191,14.7966463 L68.6122884,9.92205808 L65.2297078,6.47033048 C64.8980685,6.13194024 65.081139,5.54141611 65.5395195,5.47211617 L70.2134517,4.76068578 L72.3039766,0.32622589 C72.509579,-0.108741963 73.1024459,-0.108741963 73.3073441,0.32622589 Z" id="favorites-copy-3" fill="#EDEDED"></path>
                                <path d="M94.9941366,0.32622589 L97.0846616,4.76068578 L101.758594,5.47211617 C102.216974,5.54215343 102.400045,6.13194024 102.068405,6.47033048 L98.6858248,9.92205808 L99.4842941,14.7966463 C99.5624511,15.275111 99.082947,15.6393044 98.6731507,15.4137108 L94.4928049,13.1128049 L90.311755,15.4144482 C89.9019586,15.6400416 89.4224546,15.275111 89.5006116,14.7966463 L90.2990809,9.92205808 L86.9165003,6.47033048 C86.584861,6.13194024 86.7679315,5.54141611 87.226312,5.47211617 L91.9002442,4.76068578 L93.9907691,0.32622589 C94.1963715,-0.108741963 94.7892384,-0.108741963 94.9941366,0.32622589 Z" id="favorites-copy-4" fill="#EDEDED"></path>
                            </g>
                            <polyline id="Shape" stroke="#EDEDED" stroke-width="3.68639668" fill="none" stroke-linecap="round" stroke-linejoin="round" points="305 16.0019272 309.041017 19.741433 317.392453 12"></polyline>
                            <rect id="Rectangle-Copy-11" stroke="none" fill="#EDEDED" fill-rule="evenodd" x="350.498113" y="8" width="55.7660377" height="15" rx="7.5"></rect>
                            <rect id="Rectangle-Copy-18" stroke="none" fill="#EDEDED" fill-rule="evenodd" x="438.79434" y="8" width="86.7471698" height="15" rx="7.5"></rect>
                            <ellipse id="Oval" stroke="none" fill="#E391FF" fill-rule="evenodd" cx="596.29434" cy="15.2897196" rx="9.29433962" ry="9.28971963"></ellipse>
                        </g>
                    </g>
                    <g id="Group-Copy-2" mask="url(#mask-12)">
                        <g transform="translate(0.113208, 98.000000)">
                            <g id="Rectangle" stroke="none" fill="none">
                                <use fill="black" fill-opacity="1" filter="url(#filter-18)" xlink:href="#path-17"></use>
                                <use fill="#FFFFFF" fill-rule="evenodd" xlink:href="#path-17"></use>
                            </g>
                            <rect id="Rectangle" stroke="none" fill="#EDEDED" fill-rule="evenodd" x="19" y="8" width="51.9622642" height="15" rx="7.5"></rect>
                            <rect id="Rectangle-Copy-13" stroke="none" fill="#1CDFBB" fill-rule="evenodd" x="116.590566" y="8" width="30.9811321" height="15" rx="7.5"></rect>
                            <g id="Group-2" stroke="none" stroke-width="1" fill="none" fill-rule="evenodd" transform="translate(177.000000, 8.000000)">
                                <path d="M8.24696676,0.32622589 L10.3374918,4.76068578 L15.0114239,5.47211617 C15.4698044,5.54215343 15.6528749,6.13194024 15.3212356,6.47033048 L11.938655,9.92205808 L12.7371243,14.7966463 C12.8152813,15.275111 12.3357772,15.6393044 11.9259809,15.4137108 L7.74563506,13.1128049 L3.56458517,15.4144482 C3.1547888,15.6400416 2.67528475,15.275111 2.75344179,14.7966463 L3.55191108,9.92205808 L0.169330474,6.47033048 C-0.162308861,6.13194024 0.0207616768,5.54141611 0.479142162,5.47211617 L5.15307439,4.76068578 L7.24359928,0.32622589 C7.44920166,-0.108741963 8.04206857,-0.108741963 8.24696676,0.32622589 Z" id="favorites" fill="#FFC506"></path>
                                <path d="M29.9337592,0.32622589 L32.0242842,4.76068578 L36.6982163,5.47211617 C37.1565968,5.54215343 37.3396674,6.13194024 37.008028,6.47033048 L33.6254474,9.92205808 L34.4239167,14.7966463 C34.5020737,15.275111 34.0225697,15.6393044 33.6127733,15.4137108 L29.4324275,13.1128049 L25.2513776,15.4144482 C24.8415813,15.6400416 24.3620772,15.275111 24.4402342,14.7966463 L25.2387035,9.92205808 L21.8561229,6.47033048 C21.5244836,6.13194024 21.7075541,5.54141611 22.1659346,5.47211617 L26.8398668,4.76068578 L28.9303917,0.32622589 C29.1359941,-0.108741963 29.728861,-0.108741963 29.9337592,0.32622589 Z" id="favorites-copy" fill="#FFC506"></path>
                                <path d="M51.6205517,0.32622589 L53.7110767,4.76068578 L58.3850088,5.47211617 C58.8433893,5.54215343 59.0264598,6.13194024 58.6948205,6.47033048 L55.3122399,9.92205808 L56.1107092,14.7966463 C56.1888662,15.275111 55.7093621,15.6393044 55.2995658,15.4137108 L51.11922,13.1128049 L46.9381701,15.4144482 C46.5283737,15.6400416 46.0488697,15.275111 46.1270267,14.7966463 L46.925496,9.92205808 L43.5429154,6.47033048 C43.211276,6.13194024 43.3943466,5.54141611 43.8527271,5.47211617 L48.5266593,4.76068578 L50.6171842,0.32622589 C50.8227866,-0.108741963 51.4156535,-0.108741963 51.6205517,0.32622589 Z" id="favorites-copy-2" fill="#FFC506"></path>
                                <path d="M73.3073441,0.32622589 L75.3978691,4.76068578 L80.0718012,5.47211617 C80.5301817,5.54215343 80.7132523,6.13194024 80.3816129,6.47033048 L76.9990323,9.92205808 L77.7975016,14.7966463 C77.8756586,15.275111 77.3961546,15.6393044 76.9863582,15.4137108 L72.8060124,13.1128049 L68.6249625,15.4144482 C68.2151662,15.6400416 67.7356621,15.275111 67.8138191,14.7966463 L68.6122884,9.92205808 L65.2297078,6.47033048 C64.8980685,6.13194024 65.081139,5.54141611 65.5395195,5.47211617 L70.2134517,4.76068578 L72.3039766,0.32622589 C72.509579,-0.108741963 73.1024459,-0.108741963 73.3073441,0.32622589 Z" id="favorites-copy-3" fill="#FFC506"></path>
                                <path d="M94.9941366,0.32622589 L97.0846616,4.76068578 L101.758594,5.47211617 C102.216974,5.54215343 102.400045,6.13194024 102.068405,6.47033048 L98.6858248,9.92205808 L99.4842941,14.7966463 C99.5624511,15.275111 99.082947,15.6393044 98.6731507,15.4137108 L94.4928049,13.1128049 L90.311755,15.4144482 C89.9019586,15.6400416 89.4224546,15.275111 89.5006116,14.7966463 L90.2990809,9.92205808 L86.9165003,6.47033048 C86.584861,6.13194024 86.7679315,5.54141611 87.226312,5.47211617 L91.9002442,4.76068578 L93.9907691,0.32622589 C94.1963715,-0.108741963 94.7892384,-0.108741963 94.9941366,0.32622589 Z" id="favorites-copy-4" fill="#EDEDED"></path>
                            </g>
                            <polyline id="Shape" stroke="#47BEFF" stroke-width="3.68639668" fill="none" stroke-linecap="round" stroke-linejoin="round" points="305 16.0019272 309.041017 19.741433 317.392453 12"></polyline>
                            <rect id="Rectangle-Copy-11" stroke="none" fill="#EDEDED" fill-rule="evenodd" x="350.498113" y="8" width="55.7660377" height="15" rx="7.5"></rect>
                            <rect id="Rectangle-Copy-18" stroke="none" fill="#EDEDED" fill-rule="evenodd" x="438.79434" y="8" width="111.256604" height="15" rx="7.5"></rect>
                            <ellipse id="Oval" stroke="none" fill="#47BEFF" fill-rule="evenodd" cx="596.29434" cy="15.2897196" rx="9.29433962" ry="9.28971963"></ellipse>
                        </g>
                    </g>
                    <g id="Group-Copy-3" mask="url(#mask-12)">
                        <g transform="translate(0.113208, 131.000000)">
                            <rect id="Rectangle" stroke="none" fill="#FFFFFF" fill-rule="evenodd" x="0" y="0" width="619.622642" height="32"></rect>
                            <rect id="Rectangle" stroke="none" fill="#EDEDED" fill-rule="evenodd" x="19" y="8" width="56.4716981" height="15" rx="7.5"></rect>
                            <rect id="Rectangle-Copy-13" stroke="none" fill="#FF4C65" fill-rule="evenodd" x="116.590566" y="8" width="30.9811321" height="15" rx="7.5"></rect>
                            <g id="Group-2" stroke="none" stroke-width="1" fill="none" fill-rule="evenodd" transform="translate(177.000000, 8.000000)">
                                <path d="M8.24696676,0.32622589 L10.3374918,4.76068578 L15.0114239,5.47211617 C15.4698044,5.54215343 15.6528749,6.13194024 15.3212356,6.47033048 L11.938655,9.92205808 L12.7371243,14.7966463 C12.8152813,15.275111 12.3357772,15.6393044 11.9259809,15.4137108 L7.74563506,13.1128049 L3.56458517,15.4144482 C3.1547888,15.6400416 2.67528475,15.275111 2.75344179,14.7966463 L3.55191108,9.92205808 L0.169330474,6.47033048 C-0.162308861,6.13194024 0.0207616768,5.54141611 0.479142162,5.47211617 L5.15307439,4.76068578 L7.24359928,0.32622589 C7.44920166,-0.108741963 8.04206857,-0.108741963 8.24696676,0.32622589 Z" id="favorites" fill="#FFC506"></path>
                                <path d="M29.9337592,0.32622589 L32.0242842,4.76068578 L36.6982163,5.47211617 C37.1565968,5.54215343 37.3396674,6.13194024 37.008028,6.47033048 L33.6254474,9.92205808 L34.4239167,14.7966463 C34.5020737,15.275111 34.0225697,15.6393044 33.6127733,15.4137108 L29.4324275,13.1128049 L25.2513776,15.4144482 C24.8415813,15.6400416 24.3620772,15.275111 24.4402342,14.7966463 L25.2387035,9.92205808 L21.8561229,6.47033048 C21.5244836,6.13194024 21.7075541,5.54141611 22.1659346,5.47211617 L26.8398668,4.76068578 L28.9303917,0.32622589 C29.1359941,-0.108741963 29.728861,-0.108741963 29.9337592,0.32622589 Z" id="favorites-copy" fill="#FFC506"></path>
                                <path d="M51.6205517,0.32622589 L53.7110767,4.76068578 L58.3850088,5.47211617 C58.8433893,5.54215343 59.0264598,6.13194024 58.6948205,6.47033048 L55.3122399,9.92205808 L56.1107092,14.7966463 C56.1888662,15.275111 55.7093621,15.6393044 55.2995658,15.4137108 L51.11922,13.1128049 L46.9381701,15.4144482 C46.5283737,15.6400416 46.0488697,15.275111 46.1270267,14.7966463 L46.925496,9.92205808 L43.5429154,6.47033048 C43.211276,6.13194024 43.3943466,5.54141611 43.8527271,5.47211617 L48.5266593,4.76068578 L50.6171842,0.32622589 C50.8227866,-0.108741963 51.4156535,-0.108741963 51.6205517,0.32622589 Z" id="favorites-copy-2" fill="#FFC506"></path>
                                <path d="M73.3073441,0.32622589 L75.3978691,4.76068578 L80.0718012,5.47211617 C80.5301817,5.54215343 80.7132523,6.13194024 80.3816129,6.47033048 L76.9990323,9.92205808 L77.7975016,14.7966463 C77.8756586,15.275111 77.3961546,15.6393044 76.9863582,15.4137108 L72.8060124,13.1128049 L68.6249625,15.4144482 C68.2151662,15.6400416 67.7356621,15.275111 67.8138191,14.7966463 L68.6122884,9.92205808 L65.2297078,6.47033048 C64.8980685,6.13194024 65.081139,5.54141611 65.5395195,5.47211617 L70.2134517,4.76068578 L72.3039766,0.32622589 C72.509579,-0.108741963 73.1024459,-0.108741963 73.3073441,0.32622589 Z" id="favorites-copy-3" fill="#FFC506"></path>
                                <path d="M94.9941366,0.32622589 L97.0846616,4.76068578 L101.758594,5.47211617 C102.216974,5.54215343 102.400045,6.13194024 102.068405,6.47033048 L98.6858248,9.92205808 L99.4842941,14.7966463 C99.5624511,15.275111 99.082947,15.6393044 98.6731507,15.4137108 L94.4928049,13.1128049 L90.311755,15.4144482 C89.9019586,15.6400416 89.4224546,15.275111 89.5006116,14.7966463 L90.2990809,9.92205808 L86.9165003,6.47033048 C86.584861,6.13194024 86.7679315,5.54141611 87.226312,5.47211617 L91.9002442,4.76068578 L93.9907691,0.32622589 C94.1963715,-0.108741963 94.7892384,-0.108741963 94.9941366,0.32622589 Z" id="favorites-copy-4" fill="#FFC506"></path>
                            </g>
                            <polyline id="Shape" stroke="#47BEFF" stroke-width="3.68639668" fill="none" stroke-linecap="round" stroke-linejoin="round" points="305 16.0019272 309.041017 19.741433 317.392453 12"></polyline>
                            <rect id="Rectangle-Copy-11" stroke="none" fill="#EDEDED" fill-rule="evenodd" x="350.498113" y="8" width="55.7660377" height="15" rx="7.5"></rect>
                            <rect id="Rectangle-Copy-18" stroke="none" fill="#EDEDED" fill-rule="evenodd" x="438.79434" y="8" width="102.237736" height="15" rx="7.5"></rect>
                            <ellipse id="Oval" stroke="none" fill="#FFC506" fill-rule="evenodd" cx="596.29434" cy="15.2897196" rx="9.29433962" ry="9.28971963"></ellipse>
                        </g>
                    </g>
                    <rect id="Rectangle" fill="#EEEEEE" mask="url(#mask-12)" x="96.0415094" y="0" width="1" height="163"></rect>
                    <rect id="Rectangle-Copy-14" fill="#EEEEEE" mask="url(#mask-12)" x="165.749057" y="0" width="1" height="163"></rect>
                    <rect id="Rectangle-Copy-15" fill="#EEEEEE" mask="url(#mask-12)" x="288.124528" y="0" width="1" height="163"></rect>
                    <rect id="Rectangle-Copy-16" fill="#EEEEEE" mask="url(#mask-12)" x="333.04717" y="0" width="1" height="163"></rect>
                    <rect id="Rectangle-Copy-17" fill="#EEEEEE" mask="url(#mask-12)" x="421.343396" y="0" width="1" height="163"></rect>
                    <rect id="Rectangle-Copy-21" fill="#EEEEEE" mask="url(#mask-12)" x="571.601887" y="0" width="1" height="163"></rect>
                </g>
                <g id="nav">
                    <path d="M9.28971963,0 L811.71028,0 C816.840851,8.33886332e-16 821,4.15914915 821,9.28971963 L821,46.4485981 L0,46.4485981 L0,9.28971963 C1.14804317e-15,4.15914915 4.15914915,-2.61024317e-15 9.28971963,0 Z" id="Rectangle" fill="#FF7BA1"></path>
                    <rect id="Rectangle-Copy-7" fill="#FFFFFF" x="170.396226" y="46.4485981" width="650.603774" height="21.6760125"></rect>
                    <path d="M179.685946,23.2242991 L223.068771,23.2242991 C228.199341,23.2242991 232.358491,27.3834482 232.358491,32.5140187 L232.358491,46.4485981 L170.396226,46.4485981 L170.396226,32.5140187 C170.396226,27.3834482 174.555376,23.2242991 179.685946,23.2242991 Z" id="Rectangle" fill="#FFFFFF"></path>
                    <path d="M247.844437,23.2242991 L306.717828,23.2242991 C311.848398,23.2242991 316.007547,27.3834482 316.007547,32.5140187 L316.007547,46.4485981 L238.554717,46.4485981 L238.554717,32.5140187 C238.554717,27.3834482 242.713866,23.2242991 247.844437,23.2242991 Z" id="Rectangle-Copy-9" fill="#FFFFFF" opacity="0.5"></path>
                    <path d="M331.493493,23.2242991 L421.348016,23.2242991 C426.478587,23.2242991 430.637736,27.3834482 430.637736,32.5140187 L430.637736,46.4485981 L322.203774,46.4485981 L322.203774,32.5140187 C322.203774,27.3834482 326.362923,23.2242991 331.493493,23.2242991 Z" id="Rectangle-Copy-10" fill="#FFFFFF" opacity="0.5"></path>
                    <path d="M446.123682,23.2242991 L504.997073,23.2242991 C510.127643,23.2242991 514.286792,27.3834482 514.286792,32.5140187 L514.286792,46.4485981 L436.833962,46.4485981 L436.833962,32.5140187 C436.833962,27.3834482 440.993111,23.2242991 446.123682,23.2242991 Z" id="Rectangle-Copy-22" fill="#FFFFFF" opacity="0.5"></path>
                    <ellipse id="Oval" fill="#FFFFFF" opacity="0.5" cx="793.116981" cy="23.2242991" rx="12.3924528" ry="12.3862928"></ellipse>
                </g>
            </g>
        </g>
    </g>
</svg>